<svg xmlns="http://www.w3.org/2000/svg" viewBox="0 0 64 64" width="64" height="64">
  <defs>
    <linearGradient id="fbg" x1="0%" y1="0%" x2="100%" y2="100%">
      <stop offset="0%"   stop-color="#7B74F0"/>
      <stop offset="100%" stop-color="#5b4fd4"/>
    </linearGradient>
  </defs>

  <!-- Fond carré arrondi -->
  <rect x="0" y="0" width="64" height="64" rx="14" fill="url(#fbg)"/>
  <!-- Reflet -->
  <rect x="0" y="0" width="64" height="32" rx="14"
        fill="rgba(255,255,255,0.12)"/>

  <!-- Chapeau de diplômé simplifié -->
  <!-- Plateau -->
  <path d="M32 14 L10 27 L32 40 L54 27 Z"
        fill="white" opacity="0.95"/>
  <!-- Calotte -->
  <path d="M20 32 L20 44 Q32 50 44 44 L44 32 L32 38 Z"
        fill="white" opacity="0.80"/>
  <!-- Corde -->
  <line x1="54" y1="27" x2="54" y2="39"
        stroke="white" stroke-width="2.5" stroke-linecap="round" opacity="0.90"/>
  <circle cx="54" cy="41" r="3" fill="white" opacity="0.90"/>
  <!-- Étoile centrale -->
  <path d="M32 21 L33.5 26 L39 26 L34.5 29.5 L36 34.5 L32 31.5 L28 34.5 L29.5 29.5 L25 26 L30.5 26 Z"
        fill="#7B74F0" opacity="0.95"/>
</svg>
